<svg width="22" height="22" viewBox="0 0 22 22" fill="none" xmlns="http://www.w3.org/2000/svg">
<path d="M11.0223 21.5857C10.7629 21.5857 10.514 21.4826 10.3305 21.2991C10.1471 21.1157 10.044 20.8668 10.044 20.6073V17.6724H6.1307C5.61176 17.6724 5.11408 17.4662 4.74714 17.0993C4.38019 16.7323 4.17405 16.2346 4.17405 15.7157V5.93245C4.17405 5.41352 4.38019 4.91584 4.74714 4.54889C5.11408 4.18195 5.61176 3.9758 6.1307 3.9758H19.8273C20.3462 3.9758 20.8439 4.18195 21.2108 4.54889C21.5778 4.91584 21.7839 5.41352 21.7839 5.93245V15.7157C21.7839 16.2346 21.5778 16.7323 21.2108 17.0993C20.8439 17.4662 20.3462 17.6724 19.8273 17.6724H15.8161L12.1963 21.302C12.0007 21.4781 11.7659 21.5857 11.5115 21.5857H11.0223ZM2.21739 13.7591H0.260742V2.01915C0.260742 1.50022 0.466889 1.00253 0.833832 0.63559C1.20078 0.268647 1.69846 0.0625 2.21739 0.0625H17.8706V2.01915H2.21739V13.7591Z" fill="white"/>
</svg>
