<svg width="22" height="20" viewBox="0 0 22 20" fill="none" xmlns="http://www.w3.org/2000/svg">
<path d="M21.499 8.8635C21.499 8.3448 21.3003 7.84734 20.9466 7.48056C20.593 7.11378 20.1133 6.90772 19.6132 6.90772H13.6543L14.5594 2.43877C14.5783 2.34098 14.5877 2.23341 14.5877 2.12585C14.5877 1.72491 14.4274 1.35331 14.1729 1.08928L13.1734 0.0625L6.96936 6.49701C6.6205 6.85883 6.41307 7.34777 6.41307 7.88561V17.6645C6.41307 18.1832 6.61174 18.6807 6.96539 19.0475C7.31903 19.4142 7.79867 19.6203 8.2988 19.6203H16.7846C17.5672 19.6203 18.2366 19.1313 18.5195 18.4273L21.367 11.5331C21.4518 11.3082 21.499 11.0735 21.499 10.8193V8.8635ZM0.755859 19.6203H4.52733V7.88561H0.755859V19.6203Z" fill="white"/>
</svg>
