<svg width="18" height="20" viewBox="0 0 18 20" fill="none" xmlns="http://www.w3.org/2000/svg">
<path d="M14.2609 13.8934C13.5383 13.8934 12.8918 14.1881 12.3975 14.6498L5.61879 10.5732C5.66633 10.3473 5.70435 10.1214 5.70435 9.8856C5.70435 9.64984 5.66633 9.42391 5.61879 9.19798L12.3214 5.16069C12.8348 5.65184 13.5098 5.95636 14.2609 5.95636C15.0173 5.95636 15.7428 5.64588 16.2777 5.09322C16.8126 4.54057 17.1131 3.791 17.1131 3.00943C17.1131 2.22785 16.8126 1.47829 16.2777 0.925636C15.7428 0.372979 15.0173 0.0625 14.2609 0.0625C13.5044 0.0625 12.779 0.372979 12.2441 0.925636C11.7092 1.47829 11.4087 2.22785 11.4087 3.00943C11.4087 3.24518 11.4467 3.47111 11.4943 3.69705L4.79166 7.73434C4.27827 7.24318 3.60325 6.93867 2.85218 6.93867C2.09573 6.93867 1.37027 7.24915 0.835383 7.8018C0.300496 8.35446 0 9.10402 0 9.8856C0 10.6672 0.300496 11.4167 0.835383 11.9694C1.37027 12.522 2.09573 12.8325 2.85218 12.8325C3.60325 12.8325 4.27827 12.528 4.79166 12.0369L11.5608 16.1134C11.5133 16.3197 11.4848 16.5358 11.4848 16.7618C11.4848 18.3433 12.7302 19.6203 14.2609 19.6203C15.7916 19.6203 17.037 18.3433 17.037 16.7618C17.037 16.001 16.7445 15.2715 16.2239 14.7335C15.7033 14.1956 14.9972 13.8934 14.2609 13.8934Z" fill="white"/>
</svg>
